HIERARCHY
ROOT root
{
	OFFSET 0.000000 0.000000 0.000000
	CHANNELS 6 Xposition Yposition Zposition Zrotation Yrotation Xrotation
	JOINT lhip
	{
		OFFSET 0.058581 -0.082280 -0.017664
		CHANNELS 3 Zrotation Yrotation Xrotation
		JOINT lknee
		{
			OFFSET 0.043451 -0.386469 0.008037
			CHANNELS 3 Zrotation Yrotation Xrotation
			JOINT lankle
			{
				OFFSET -0.014790 -0.426874 -0.037428
				CHANNELS 3 Zrotation Yrotation Xrotation
				JOINT ltoe
				{
					OFFSET 0.041054 -0.060286 0.122042
					CHANNELS 3 Zrotation Yrotation Xrotation
					End Site
					{
						OFFSET 0.000000 0.000000 0.000000
					}
				}
			}
		}
	}
	JOINT rhip
	{
		OFFSET -0.060310 -0.090513 -0.013543
		CHANNELS 3 Zrotation Yrotation Xrotation
		JOINT rknee
		{
			OFFSET -0.043257 -0.383688 -0.004843
			CHANNELS 3 Zrotation Yrotation Xrotation
			JOINT rankle
			{
				OFFSET 0.019056 -0.420046 -0.034562
				CHANNELS 3 Zrotation Yrotation Xrotation
				JOINT rtoe
				{
					OFFSET -0.034840 -0.062106 0.130323
					CHANNELS 3 Zrotation Yrotation Xrotation
					End Site
					{
						OFFSET 0.000000 0.000000 0.000000
					}
				}
			}
		}
	}
	JOINT lowerback
	{
		OFFSET 0.004439 0.124404 -0.038385
		CHANNELS 3 Zrotation Yrotation Xrotation
		JOINT upperback
		{
			OFFSET 0.004488 0.137956 0.026820
			CHANNELS 3 Zrotation Yrotation Xrotation
			JOINT chest
			{
				OFFSET -0.002265 0.056032 0.002855
				CHANNELS 3 Zrotation Yrotation Xrotation
				JOINT lowerneck
				{
					OFFSET -0.013390 0.211636 -0.033468
					CHANNELS 3 Zrotation Yrotation Xrotation
					JOINT upperneck
					{
						OFFSET 0.010113 0.088937 0.050410
						CHANNELS 3 Zrotation Yrotation Xrotation
						End Site
						{
							OFFSET 0.000000 0.000000 0.000000
						}
					}
				}
				JOINT lclavicle
				{
					OFFSET 0.071702 0.114000 -0.018898
					CHANNELS 3 Zrotation Yrotation Xrotation
					JOINT lshoulder
					{
						OFFSET 0.122921 0.045205 -0.019046
						CHANNELS 3 Zrotation Yrotation Xrotation
						JOINT lelbow
						{
							OFFSET 0.255332 -0.015649 -0.022946
							CHANNELS 3 Zrotation Yrotation Xrotation
							JOINT lwrist
							{
								OFFSET 0.265709 0.012698 -0.007375
								CHANNELS 3 Zrotation Yrotation Xrotation
								End Site
								{
									OFFSET 0.000000 0.000000 0.000000
								}
							}
						}
					}
				}
				JOINT rclavicle
				{
					OFFSET -0.082954 0.112472 -0.023707
					CHANNELS 3 Zrotation Yrotation Xrotation
					JOINT rshoulder
					{
						OFFSET -0.113228 0.046853 -0.008472
						CHANNELS 3 Zrotation Yrotation Xrotation
						JOINT relbow
						{
							OFFSET -0.260127 -0.014369 -0.031269
							CHANNELS 3 Zrotation Yrotation Xrotation
							JOINT rwrist
							{
								OFFSET -0.269108 0.006794 -0.006027
								CHANNELS 3 Zrotation Yrotation Xrotation
								End Site
								{
									OFFSET 0.000000 0.000000 0.000000
								}
							}
						}
					}
				}
			}
		}
	}
}
MOTION
Frames: 5
Frame Time: 0.033333
0.478028 0.660081 0.732264 -30.680594 -4.620293 80.221340 6.878755 -12.806718 -29.045088 -0.152985 7.635669 84.126677 -6.174171 13.794899 -51.048404 0.000000 -0.000000 0.000000 -27.916224 -6.279371 -44.146206 -3.105626 0.307058 82.668283 16.009070 1.402684 -29.875705 0.000000 -0.000000 0.000000 -3.600855 7.920595 32.413503 1.565798 3.396820 1.581501 1.387720 -1.947295 4.648171 -5.888590 21.031890 -24.355452 -9.407403 8.559775 -4.382169 -21.650236 -5.235193 -6.412534 -60.295431 -27.648796 12.591710 163.837155 -62.667230 -125.688816 26.030749 -35.108973 -7.521164 30.838708 6.908102 -5.419353 52.915370 14.513208 6.498345 -38.656136 36.645221 -41.224624 -0.977955 8.376411 -13.033172 
0.478856 0.659134 0.717064 -31.292060 -4.121398 78.851492 7.387284 -12.241078 -29.304145 0.311664 7.476700 88.306378 -6.740748 13.105554 -51.781396 0.000000 -0.000000 0.000000 -27.950420 -6.133737 -44.784820 -3.534842 0.627628 85.531028 15.842400 2.631667 -30.433893 0.000000 -0.000000 0.000000 -2.826353 6.934665 35.164438 1.496628 3.117359 1.431942 1.300743 -1.187939 3.788803 -6.143263 20.924418 -24.334683 -9.342977 7.819831 -5.004649 -21.182310 -6.603852 -7.023610 -59.670242 -28.090877 12.155279 162.858304 -61.634571 -124.504818 26.252671 -34.862761 -7.799564 30.683442 9.097846 -4.924103 51.984458 13.927990 5.742555 -39.836381 36.411975 -42.079111 -2.080247 8.332234 -14.325926 
0.479354 0.657579 0.704174 -31.834575 -3.876160 77.698177 7.511679 -12.084537 -29.476780 0.976207 7.422519 91.780553 -7.198531 12.923723 -52.239853 0.000000 -0.000000 0.000000 -27.979486 -6.049189 -45.318678 -3.651925 1.177707 87.760998 15.932918 3.235838 -30.767902 0.000000 -0.000000 0.000000 -2.539751 5.579305 37.292105 1.248088 2.539605 1.219022 1.042909 -0.202661 3.435194 -6.268178 20.701653 -24.691691 -8.810488 7.054153 -5.702524 -20.206914 -7.092810 -7.983829 -58.489848 -28.824743 11.418421 162.502017 -60.633910 -124.362163 26.358897 -34.375351 -7.854691 30.754582 10.519041 -4.907264 51.486857 14.246381 5.379846 -40.122123 36.382644 -43.024167 -2.920211 8.162263 -15.547252 
0.479411 0.653435 0.689535 -32.482416 -3.294555 76.775751 7.727876 -11.627931 -29.678910 1.315723 6.698304 95.543506 -7.696484 12.664915 -53.157743 0.000000 -0.000000 0.000000 -27.888754 -6.370207 -46.060063 -3.308400 1.759576 90.052805 15.719544 3.995695 -31.100099 0.000000 -0.000000 0.000000 -2.010531 3.442209 40.500287 0.802644 1.988697 -2.538527 0.925727 0.919657 4.550561 -6.243121 18.827299 -24.782379 -7.403592 5.632964 -7.114812 -19.474543 -6.941757 -9.288922 -55.853186 -29.742738 9.657478 163.102804 -59.144008 -124.647997 26.224984 -33.908880 -8.202462 30.718162 11.401257 -4.782400 51.413912 14.853004 4.663519 -40.302952 36.833619 -43.269418 -4.435390 7.888056 -16.132358 
0.479475 0.652820 0.685803 -32.908174 -3.097310 76.527494 7.953616 -11.310311 -29.718760 1.267106 6.528453 96.546187 -8.024187 12.377609 -53.362498 0.000000 -0.000000 0.000000 -27.483628 -5.931377 -46.340957 -3.370773 2.208559 90.551531 15.646965 3.944835 -31.256739 0.000000 -0.000000 0.000000 -1.914129 3.230151 41.209053 0.887820 2.152567 -2.924214 1.044707 0.998317 4.468144 -6.134091 17.957241 -25.069345 -7.064085 4.657422 -7.560094 -19.179484 -7.238200 -9.614557 -54.954647 -30.105985 9.026815 162.823758 -58.538262 -124.327942 26.287477 -33.802063 -8.154148 30.463459 11.722699 -5.099676 51.443425 14.743635 4.569885 -40.578005 37.004327 -43.444660 -4.767941 7.837281 -16.719647 
